HIERARCHY
ROOT Hips
{
  OFFSET 40.9192 92.6879 18.85
  CHANNELS 6 Xposition Yposition Zposition Zrotation Xrotation Yrotation
  JOINT LeftUpLeg
  {
    OFFSET 8.64259 1.95398 -2.38835
    CHANNELS 3 Zrotation Xrotation Yrotation
    JOINT LeftLeg
    {
      OFFSET 43.7702 0 0
      CHANNELS 3 Zrotation Xrotation Yrotation
      JOINT LeftFoot
      {
        OFFSET 40.6238 0 0
        CHANNELS 3 Zrotation Xrotation Yrotation
        JOINT LeftToeBase
        {
          OFFSET 12.7242 0 0
          CHANNELS 3 Zrotation Xrotation Yrotation
          End Site
          {
            OFFSET 0 0 0
          }
        }
      }
    }
  }
  JOINT RightUpLeg
  {
    OFFSET -8.2249 1.95398 -2.59336
    CHANNELS 3 Zrotation Xrotation Yrotation
    JOINT RightLeg
    {
      OFFSET 43.5653 0 0
      CHANNELS 3 Zrotation Xrotation Yrotation
      JOINT RightFoot
      {
        OFFSET 40.6238 0 0
        CHANNELS 3 Zrotation Xrotation Yrotation
        JOINT RightToeBase
        {
          OFFSET 12.7242 0 0
          CHANNELS 3 Zrotation Xrotation Yrotation
          End Site
          {
            OFFSET 0 0 0
          }
        }
      }
    }
  }
  JOINT Spine
  {
    OFFSET 0.165834 0.87714 6.61349
    CHANNELS 3 Zrotation Xrotation Yrotation
    JOINT Spine1
    {
      OFFSET 7.38963 1.71661e-005 0
      CHANNELS 3 Zrotation Xrotation Yrotation
      JOINT Spine2
      {
        OFFSET 11.9445 1.14441e-005 0
        CHANNELS 3 Zrotation Xrotation Yrotation
        JOINT Spine3
        {
          OFFSET 14.7254 4.19617e-005 0
          CHANNELS 3 Zrotation Xrotation Yrotation
          JOINT Spine4
          {
            OFFSET 10.9679 0 0
            CHANNELS 3 Zrotation Xrotation Yrotation
            JOINT RightShoulder
            {
              OFFSET 2.46616 -1.6653 3.69651
              CHANNELS 3 Zrotation Xrotation Yrotation
              JOINT RightArm
              {
                OFFSET 13.0012 0 0
                CHANNELS 3 Zrotation Xrotation Yrotation
                JOINT RightForeArm
                {
                  OFFSET 28.7848 1.52588e-005 0
                  CHANNELS 3 Zrotation Xrotation Yrotation
                  JOINT RightHand
                  {
                    OFFSET 26.5688 1.52588e-005 0
                    CHANNELS 3 Zrotation Xrotation Yrotation
                    End Site
                    {
                      OFFSET 0 0 0
                    }
                  }
                }
              }
            }
            JOINT LeftShoulder
            {
              OFFSET 2.38034 -1.29275 -3.7523
              CHANNELS 3 Zrotation Xrotation Yrotation
              JOINT LeftArm
              {
                OFFSET 16.3182 6.10351e-005 0
                CHANNELS 3 Zrotation Xrotation Yrotation
                JOINT LeftForeArm
                {
                  OFFSET 27.0901 0 0
                  CHANNELS 3 Zrotation Xrotation Yrotation
                  JOINT LeftHand
                  {
                    OFFSET 24.5451 1.52588e-005 0
                    CHANNELS 3 Zrotation Xrotation Yrotation
                    End Site
                    {
                      OFFSET 0 0 0
                    }
                  }
                }
              }
            }
            JOINT Neck
            {
              OFFSET 5.0226 -0.0266342 0
              CHANNELS 3 Zrotation Xrotation Yrotation
              JOINT Head
              {
                OFFSET 6.69363 2.86102e-005 0
                CHANNELS 3 Zrotation Xrotation Yrotation
                End Site
                {
                  OFFSET 0 0 0
                }
              }
            }
          }
        }
      }
    }
  }
}
MOTION
Frames:	18
Frame Time:	0.0416667
-5.78759 97.5221 0.0898997 92.3416 -41.1854 91.8055 -170.865 2.5624 90.7971 -10.389 10.644 -3.33402 63.6283 2.7317 1.88265 29.3374 0.592409 -1.65687 174.015 1.61998 91.0027 -10.4846 -10.0005 0.0854076 65.3475 -2.96993 -1.66323 25.2049 -0.139078 -0.422723 0.0944099 6.95017 -89.9006 12.9506 0.235265 0.170648 1.27965 0.242556 0.160123 -21.2555 0.173094 0.225713 -1.24285 0.173092 0.225708 91.4246 -49.3139 -98.7798 28.5817 -9.87911 0.588954 -9.63635 -29.795 -42.5344 -3.10946 -0.866755 8.18098 -100.834 -50.4895 62.9864 -20.6269 18.9437 -0.792015 3.17306 18.999 -30.08 9.87861 0.932995 5.14544 15.8276 -1.3679 1.63828 -8.19134 -1.73329 -0.429751 
-5.77729 97.5046 0.0653299 92.2793 -41.042 91.7766 -170.908 2.82647 90.7499 -10.6395 11.9834 -3.38558 63.7046 2.95408 3.1946 28.727 0.0297206 -0.719647 174.092 1.73436 91.0513 -10.6451 -9.94689 0.0367943 65.482 -3.03868 -1.70292 26.3105 -0.0823384 -0.479079 0.0838798 6.95018 -89.9012 12.9626 0.214149 0.171794 1.29163 0.221488 0.162198 -21.2435 0.152598 0.229762 -1.23087 0.152605 0.229755 91.7604 -49.5851 -98.2042 28.2878 -9.63132 0.0864967 -9.81078 -31.0276 -42.5338 -1.9213 -0.746978 6.89391 -100.804 -50.5236 63.0428 -20.6619 18.7856 -0.684997 2.23089 16.6622 -30.0139 10.123 0.91399 4.78503 15.7568 -1.33755 1.33858 -8.30261 -1.63211 -0.282335 
-5.74225 97.5384 0.0520592 92.2461 -40.9107 91.7512 -170.923 2.81789 90.7303 -10.5915 11.9975 -3.37444 63.5234 2.85488 3.09459 28.9679 0.209939 -0.655673 174.111 1.9601 91.0524 -11.0403 -9.71626 0.015702 65.2845 -2.93852 -1.6463 27.2745 -0.0300348 -0.581193 0.0796915 6.9501 -89.8954 12.9659 0.208536 0.183981 1.29497 0.216445 0.17462 -21.2402 0.143596 0.238152 -1.22751 0.1436 0.238144 91.7787 -49.6166 -98.17 28.3032 -9.48871 0.218212 -9.48135 -30.7677 -42.5403 -1.10301 -0.676724 6.65744 -100.643 -50.3371 63.2035 -20.9235 18.8308 -0.738602 1.30444 14.9949 -29.7388 10.5806 0.96651 4.92177 15.5374 -1.3709 0.799771 -8.19959 -1.55087 0.466801 
-5.6964 97.5148 -0.0116985 92.3561 -40.8512 91.8472 -170.941 2.77437 90.7085 -10.7582 11.5479 -3.31919 63.6086 2.84211 2.62799 29.2562 0.470238 -1.02008 174.092 1.8266 91.033 -10.974 -9.5656 0.0208949 65.4992 -3.04533 -1.70683 26.883 -0.0769809 -0.226275 0.0844892 6.96101 -89.9013 12.9526 0.21513 0.17125 1.2817 0.222457 0.161614 -21.2534 0.153703 0.227991 -1.2408 0.153718 0.227991 91.6777 -49.7424 -98.3003 28.2523 -9.32562 0.548095 -9.93693 -30.4886 -42.8034 -0.979839 -0.667768 6.64038 -100.718 -50.4758 63.1479 -20.8944 18.8961 -0.702517 1.53965 15.4177 -29.821 10.4193 0.943381 4.83382 15.2817 -1.40262 0.752721 -7.94804 -1.56613 0.402432 
-5.64475 97.5105 -0.0889448 92.2271 -40.6156 91.6421 -171.035 2.87541 90.5091 -10.6833 12.1896 -3.36572 63.484 2.97237 3.30784 29.1243 0.360553 -0.931612 173.959 2.07528 90.8551 -11.2293 -9.61503 0.0536339 65.4763 -3.0062 -1.68175 27.2395 -0.0498268 -0.352297 0.0693803 6.95846 -89.8784 12.9567 0.196149 0.219387 1.28577 0.205612 0.210548 -21.2493 0.121136 0.268199 -1.23664 0.121145 0.2682 91.733 -49.8258 -98.1985 28.165 -9.29824 0.156722 -9.49914 -30.6488 -42.1232 -1.12897 -0.673475 6.40106 -100.688 -50.2496 63.1056 -21.0495 18.8153 -0.761973 1.47586 15.2725 -29.7444 10.4181 0.938715 4.79346 15.2021 -1.42736 0.309599 -7.78801 -1.4897 0.752911 
-5.5599 97.5078 -0.261759 92.1565 -40.4626 91.5859 -171.078 3.06437 90.4131 -11.0089 11.5612 -3.3464 63.5986 2.99129 2.2803 29.4678 0.628126 -0.943074 173.986 2.42674 90.7786 -11.7624 -9.65858 -0.0409743 65.5425 -3.00301 -1.6741 27.364 -0.019758 -0.667935 0.0632375 6.95883 -89.8621 12.956 0.191751 0.252613 1.28501 0.202685 0.24392 -21.25 0.106956 0.298562 -1.23735 0.10696 0.298559 91.5776 -49.7735 -98.4486 28.5131 -9.06184 0.728992 -10.3435 -30.4059 -43.0157 -1.07794 -0.679272 6.8132 -100.564 -49.9815 63.1841 -21.151 18.8907 -0.916828 1.24732 15.0852 -29.5539 10.6433 0.978059 4.97691 15.1005 -1.44486 0.00666093 -7.74291 -1.43394 0.803216 
-5.62841 97.4586 -0.558467 92.4542 -40.5928 91.6008 -171.21 3.23653 90.0838 -11.6688 10.5053 -3.29052 64.3257 3.56857 1.77984 28.0942 -0.455254 -0.793985 174.165 2.85349 90.6488 -12.7233 -9.7035 -0.392305 65.819 -3.12655 -1.73843 27.3525 -0.0375719 -0.441951 0.0561655 6.98456 -89.8426 12.9044 0.187018 0.292157 1.23345 0.199697 0.283637 -21.3015 0.0905584 0.334852 -1.28883 0.0905693 0.334858 91.4308 -49.9483 -98.6384 28.1755 -9.02919 0.476684 -9.73068 -30.2912 -42.4679 -1.21456 -0.680935 6.60347 -100.525 -50.0623 63.2707 -21.148 18.8492 -1.00772 1.24754 15.2451 -29.3489 10.7592 0.950535 4.65579 14.938 -1.44402 -0.0663856 -7.79698 -1.41535 0.784186 
-5.78136 97.4033 -1.06559 93.0783 -40.4722 92.0114 -171.469 3.85453 89.7984 -13.2937 10.6738 -3.0861 63.7751 3.43392 2.06932 29.4874 0.6452 -0.956355 174.399 3.60575 90.6265 -14.5752 -9.82104 -0.732801 65.7561 -3.08309 -1.70992 28.1632 0.0437434 -1.073 0.01213 7.07128 -89.8465 12.7311 0.0975215 0.295221 1.06013 0.110405 0.290645 -21.4748 0.00428187 0.310881 -1.46211 0.00426834 0.310875 91.4342 -49.6676 -98.6914 28.2166 -9.09052 0.470244 -10.1095 -30.1786 -43.1832 -0.693661 -0.644232 6.69374 -100.672 -50.2043 63.1124 -20.9713 18.7183 -0.876214 1.56872 15.0972 -29.9151 10.3727 0.873423 4.24619 14.9037 -1.46312 0.0386521 -7.16152 -1.4469 0.361995 
-6.1355 97.2882 -1.76295 93.4504 -40.6859 92.3288 -171.567 5.40537 89.4956 -15.9443 9.64784 -3.00625 64.6788 4.20113 1.71268 28.0271 -0.551266 -0.406904 175.045 4.9071 90.8691 -16.6874 -9.62218 -1.3199 65.7829 -3.14538 -1.74684 28.526 0.0930044 -1.58609 -0.0117131 7.17404 -89.8175 12.5255 0.0637905 0.357131 0.854537 0.0794536 0.353968 -21.6802 -0.0465007 0.359783 -1.66759 -0.0464726 0.359788 91.6125 -50.0275 -98.3428 27.8344 -9.04284 -0.0544251 -10.1783 -30.2001 -43.5968 -1.12831 -0.684573 7.18892 -100.84 -49.8816 62.7476 -20.8844 18.2389 -0.977471 2.28109 15.5288 -30.3326 9.46935 0.787754 4.08356 14.7288 -1.56519 -0.720663 -5.65009 -1.36081 0.70032 
-6.6721 97.1251 -2.73642 93.6559 -41.6074 93.0526 -171.471 7.48874 89.7255 -18.7181 10.1579 -3.00868 63.5139 3.4602 2.76697 30.2818 1.27735 -1.15311 176.158 6.90182 91.6652 -19.2215 -9.0006 -1.96098 64.8504 -2.88282 -1.61616 29.9153 0.136642 -1.47996 0.0160159 7.32567 -89.8195 12.2222 0.11742 0.34736 0.551235 0.132583 0.341848 -21.9835 0.00757693 0.366583 -1.97089 0.00757272 0.366579 91.3934 -49.5905 -98.7706 27.8359 -9.50265 -0.58272 -10.0533 -29.8158 -44.433 -2.54168 -0.784666 7.21196 -100.547 -49.5467 63.0444 -20.7198 17.5303 -0.922642 3.05274 14.9564 -31.6519 9.50058 0.781946 4.00536 15.8663 -1.73947 -0.86839 -5.36535 -1.47741 -0.247869 
-7.40074 97.1054 -3.81229 92.7965 -43.1302 93.1765 -171.1 10.052 90.1895 -20.5524 9.58623 -3.23306 62.7718 2.73281 2.29835 30.5981 1.5091 -0.988511 177.122 10.0669 92.4657 -21.6685 -9.01403 -2.28123 62.8411 -2.21046 -1.25005 31.0216 0.245712 -2.71956 0.108746 7.43118 -89.7952 12.0108 0.312903 0.374379 0.33988 0.329074 0.360238 -22.195 0.185912 0.451111 -2.18232 0.185911 0.451103 90.9205 -50.1945 -99.3694 26.8819 -9.78418 -1.5366 -9.27627 -27.9266 -44.4306 -3.03982 -0.726409 5.29532 -100.248 -48.897 63.2321 -21.0818 16.4014 0.00662778 3.47877 12.5308 -34.1795 11.612 0.969825 4.2459 16.2291 -1.98016 -1.70765 -3.09314 -1.50436 -0.269738 
-8.07441 97.0926 -4.96792 92.062 -44.7289 93.8023 -170.621 12.3394 91.0668 -21.8511 10.2903 -3.55215 61.9597 1.88198 3.37558 30.522 1.38746 -0.161233 177.668 11.4641 93.3241 -21.3498 -9.96277 -2.09534 61.7844 -1.98226 -1.14716 35.0605 0.35497 -6.26686 0.190099 7.53591 -89.8272 11.8014 0.4592 0.295711 0.130526 0.471749 0.27522 -22.4048 0.349091 0.420054 -2.39213 0.349089 0.420047 90.2633 -50.0747 -100.403 26.4561 -10.3341 -2.52701 -8.8574 -25.6488 -46.3474 -4.85586 -0.748395 4.06241 -99.9185 -48.4783 63.5568 -21.4642 15.6346 1.82519 2.96251 9.16412 -36.938 13.6016 1.03719 3.65972 16.42 -1.78047 -1.76054 -1.21566 -1.31088 -0.77373 
-8.88178 97.0649 -5.79102 91.6794 -44.6944 94.1904 -170.36 13.7359 91.665 -22.2645 10.4969 -3.69676 61.6996 1.44411 3.18232 29.4994 0.638293 -0.777819 177.728 11.2655 93.717 -21.4077 -8.68845 -1.80212 63.148 -2.63642 -1.5336 40.5766 0.316849 -7.03523 0.151942 7.59873 -89.8253 11.6758 0.384192 0.308074 0.00486781 0.39738 0.29086 -22.5303 0.273838 0.409297 -2.5176 0.273844 0.4093 90.2971 -49.9717 -100.374 26.3649 -10.7919 -3.78808 -8.57622 -23.8367 -49.0788 -6.01628 -0.809134 4.39631 -99.658 -47.9285 63.733 -21.7288 16.098 3.25216 1.37425 6.84889 -37.8535 16.9111 1.22277 3.34905 15.2134 -1.63143 -2.07761 0.704611 -1.11228 -0.583697 
-9.74979 97.083 -6.51848 91.0422 -44.6497 93.6816 -170.163 14.7071 91.6142 -21.6019 10.3163 -4.04953 61.2572 0.990308 2.93582 28.5072 -0.189635 -0.252418 177.716 12.3003 93.4951 -28.1213 -4.88015 -1.93671 64.879 -3.37603 -1.92009 41.1266 0.376324 -5.51553 0.207197 7.57075 -89.7941 11.7316 0.508801 0.356973 0.0606882 0.524021 0.334227 -22.4746 0.377974 0.493383 -2.46193 0.377999 0.493379 90.4649 -49.3975 -100.247 26.1846 -10.9796 -5.22753 -8.94705 -23.2998 -50.9212 -6.76467 -0.826123 4.02727 -99.7534 -47.9823 63.6123 -21.9154 16.1959 4.77147 1.17347 6.25192 -38.4882 15.9867 1.26531 4.0034 14.1507 -1.62276 -1.3124 1.18949 -1.30884 -0.62256 
-10.7412 97.0921 -7.29115 91.9753 -44.2425 93.9872 -169.893 14.7211 91.5913 -21.2376 9.74372 -4.38934 60.1389 -0.0589596 1.34749 29.0754 0.331289 -1.02412 177.551 11.76 92.9863 -37.1959 -3.3354 -2.41273 66.3369 -3.98986 -2.22093 37.3806 0.348897 -7.84135 0.297194 7.6239 -89.7175 11.6244 0.723535 0.487917 -0.0464637 0.74433 0.455589 -22.5819 0.54345 0.682811 -2.56926 0.543454 0.682811 90.6589 -49.5692 -99.9085 25.6839 -10.8671 -6.84865 -10.3484 -23.4818 -52.768 -7.90809 -0.911607 4.228 -99.412 -47.8695 64.0743 -22.6681 15.905 6.21056 1.34503 6.63753 -37.8854 16.5648 1.31345 4.03135 13.7715 -1.90852 -0.672993 1.0486 -1.7676 -1.16 
-11.8872 97.0341 -8.08274 92.5319 -44.0937 94.0303 -169.819 15.1502 91.4919 -20.8717 10.6226 -4.65752 58.5461 -1.29159 1.64155 29.4258 0.608278 -1.07757 177.447 11.2018 92.2441 -45.4744 -3.34652 -2.85152 63.6896 -3.16677 -1.82094 36.8465 0.36466 -6.79508 0.449686 7.62874 -89.6868 11.614 1.0413 0.516192 -0.056638 1.06301 0.469852 -22.5933 0.838016 0.805288 -2.58066 0.838029 0.805284 90.51 -49.0017 -100.266 25.2865 -11.1169 -8.39258 -9.44662 -22.2076 -52.8655 -7.0569 -0.800238 3.58908 -99.2031 -48.1033 64.4705 -23.5423 15.3805 7.66799 0.272825 5.44549 -36.529 17.6268 1.32081 3.62672 13.7697 -2.15949 -0.192989 1.29331 -2.13267 -1.28842 
-13.3705 96.7989 -8.8577 93.2679 -43.7901 93.6144 -169.807 15.4168 90.9638 -20.5177 10.9288 -4.97864 57.879 -1.74326 1.01235 28.6215 -0.0849711 -0.398581 177.091 9.59086 90.8306 -50.7558 -5.00401 -3.30614 59.251 -1.61056 -0.942788 40.9008 0.392704 -5.11983 0.590509 7.59381 -89.6146 11.6827 1.3554 0.626513 0.0123172 1.38166 0.566234 -22.5257 1.10443 1.00491 -2.51306 1.10447 1.00493 89.8656 -47.8894 -101.535 25.818 -10.4957 -8.88414 -10.779 -22.5223 -53.1953 -7.00655 -0.854296 4.25296 -98.9853 -48.173 64.8182 -25.202 14.6073 9.94597 -0.560177 4.10406 -35.775 18.8879 1.36195 3.35737 13.676 -2.40605 0.305746 1.0638 -2.48459 -1.25703 
-15.0056 96.4813 -9.81102 93.4959 -43.9371 92.7979 -169.8 15.9545 90.3371 -19.7741 10.8491 -5.34715 57.6043 -2.00046 0.618334 26.7422 -1.63467 0.133372 176.587 7.72983 89.3064 -52.9444 -8.09846 -3.79553 55.6842 -0.259489 -0.044897 40.1189 0.368631 -5.48228 0.781932 7.51838 -89.5619 11.8323 1.76109 0.685918 0.162356 1.78956 0.607721 -22.3785 1.47351 1.18355 -2.36588 1.47352 1.18355 90.6961 -47.4403 -100.334 25.2721 -10.298 -10.8538 -11.5668 -24.3538 -52.6068 -6.99276 -0.877291 4.31986 -98.8063 -48.2641 65.1159 -26.5216 14.1953 11.9167 -0.451189 3.98509 -35.152 16.8067 1.10826 2.72234 13.7832 -2.56711 0.67637 0.699918 -2.70572 -0.885935 
